# xmcd
#
# Track frame offsets:
# 150
# 12345
# 29581
# 50389
# 73100
# 92553
# 107470
# 127156
# 145713
# 167308
# 189089
# 203436
# 219302
# 232473
# 246542
#
# Disc length: 3518 seconds
#
#
# Revision: 0
# Processed by: cddbd v1.5.1PL0 Copyright (c) Steve Scherf et al.
# Submitted via: FreeRIP 2.00 
#
DISCID=cf0dbc0f
DTITLE=Little George Sueref - The Blue Stars
DYEAR=2000
DGENRE=Blues
TTITLE0=Six Sixtysix
TTITLE1=Feel So Lonesome
TTITLE2=Tell Your Mother
TTITLE3=Papers
TTITLE4=Treat Your Daddy Right
TTITLE5=Finger Lickin'
TTITLE6=The Clock
TTITLE7=Living In The City
TTITLE8=Everyday about This time
TTITLE9=3-6-9
TTITLE10=I'm Leaving
TTITLE11=Catfish
TTITLE12=Further On Down The Line
TTITLE13=Rhythm Rockin' Boogie
TTITLE14=Don't Take Your Daughter
EXTD=
EXTT0=
EXTT1=
EXTT2=
EXTT3=
EXTT4=
EXTT5=
EXTT6=
EXTT7=
EXTT8=
EXTT9=
EXTT10=
EXTT11=
EXTT12=
EXTT13=
EXTT14=
PLAYORDER=
